<?xml version="1.0" encoding="iso-8859-1"?>
<!-- Generator: Adobe Illustrator 18.1.1, SVG Export Plug-In . SVG Version: 6.00 Build 0)  -->
<svg version="1.1" id="Capa_1" xmlns="http://www.w3.org/2000/svg" xmlns:xlink="http://www.w3.org/1999/xlink" x="0px" y="0px"
	 viewBox="0 0 199.109 199.109" style="enable-background:new 0 0 199.109 199.109;" xml:space="preserve" transform="scale(0.3 0.3)">
<defs>
  <style>
    @keyframes blink {
      0%    { opacity: 0 }
      40%   { opacity: 0 }
      40.1% { opacity: 1 }
      99.9% { opacity: 1 }
      100%  { opacity: 0 }
    }
    .arrow {fill: #294f80; animation: blink 1.2s linear infinite}
  </style>
</defs>
<g transform="scale(0.6 0.6) translate(-75 -30)" id="arrow" class="arrow">
  <polygon class="arrowBackward" style="fill:#010002;" points="15.235,103.518 24.998,103.518 24.998,95.588 15.239,95.588 15.239,95.577 76.473,34.343 
    70.843,28.713 0,99.553 70.843,170.396 76.473,164.777 15.235,103.529 		"/>
  <rect class="arrowBackward" x="179.211" y="95.588" style="fill:#010002;" width="19.898" height="7.931"/>
  <rect class="arrowBackward" x="74.744" y="95.588" style="fill:#010002;" width="19.902" height="7.931"/>
  <rect class="arrowBackward" x="39.926" y="95.588" style="fill:#010002;" width="19.898" height="7.931"/>
  <rect class="arrowBackward" x="109.57" y="95.588" style="fill:#010002;" width="19.895" height="7.931"/>
  <rect class="arrowBackward" x="144.389" y="95.588" style="fill:#010002;" width="19.895" height="7.931"/>
</g>
<g>
</g>
<g>
</g>
<g>
</g>
<g>
</g>
<g>
</g>
<g>
</g>
<g>
</g>
<g>
</g>
<g>
</g>
<g>
</g>
<g>
</g>
<g>
</g>
<g>
</g>
<g>
</g>
<g>
</g>
<path transform="scale(5.7 5.7) translate(0 1.3)" d="M 2 7 L 2 25 L 30 25 L 30 7 L 2 7 z M 4 9 L 28 9 L 28 23 L 4 23 L 4 9 z M 6 11 L 6 21 L 9 21 C 10.654 21 12 19.654 12 18 L 12 14 C 12 12.346 10.654 11 9 11 L 6 11 z M 16 11 C 14.897 11 14 11.897 14 13 L 14 19 C 14 20.103 14.897 21 16 21 L 18 21 L 18 19 L 16 19 L 16 17 L 18 17 L 18 15 L 16 15 L 16 13 L 18 13 L 18 11 L 16 11 z M 19.691406 11 L 21.775391 20.025391 C 21.907391 20.595391 22.415 21 23 21 C 23.585 21 24.092609 20.595391 24.224609 20.025391 L 26.308594 11 L 24.255859 11 L 23 16.439453 L 21.744141 11 L 19.691406 11 z M 8 13 L 9 13 C 9.552 13 10 13.448 10 14 L 10 18 C 10 18.552 9.552 19 9 19 L 8 19 L 8 13 z"/>
<g transform="scale(0.6 0.6) translate(400 360) rotate(180)" id="arrow" class="arrow">
  <polygon style="fill:#010002;" points="15.235,103.518 24.998,103.518 24.998,95.588 15.239,95.588 15.239,95.577 76.473,34.343 
    70.843,28.713 0,99.553 70.843,170.396 76.473,164.777 15.235,103.529 		"/>
  <rect x="179.211" y="95.588" style="fill:#010002;" width="19.898" height="7.931"/>
  <rect x="74.744" y="95.588" style="fill:#010002;" width="19.902" height="7.931"/>
  <rect x="39.926" y="95.588" style="fill:#010002;" width="19.898" height="7.931"/>
  <rect x="109.57" y="95.588" style="fill:#010002;" width="19.895" height="7.931"/>
  <rect x="144.389" y="95.588" style="fill:#010002;" width="19.895" height="7.931"/>
</g>
<g>
</g>
<g>
</g>
<g>
</g>
<g>
</g>
<g>
</g>
<g>
</g>
<g>
</g>
<g>
</g>
<g>
</g>
<g>
</g>
<g>
</g>
<g>
</g>
<g>
</g>
<g>
</g>
<g>
</g>
</svg>
